<mxfile host="app.diagrams.net" modified="2023-03-10T01:01:55.701Z" agent="5.0 (Windows NT 10.0; Win64; x64) AppleWebKit/537.36 (KHTML, like Gecko) Chrome/110.0.0.0 Safari/537.36" etag="2e7Ft4SAq7jtiqiLrzA8" version="21.0.6" type="github">
  <diagram name="Seite-1" id="60iAo9Uzv3837oWp7tHv">
    <mxGraphModel dx="1017" dy="1123" grid="1" gridSize="10" guides="1" tooltips="1" connect="1" arrows="1" fold="1" page="1" pageScale="1" pageWidth="827" pageHeight="1169" math="0" shadow="0">
      <root>
        <mxCell id="0" />
        <mxCell id="1" parent="0" />
        <mxCell id="RtyP9Lv2QQKDSvv3CPA3-4" style="edgeStyle=orthogonalEdgeStyle;rounded=0;orthogonalLoop=1;jettySize=auto;html=1;entryX=1;entryY=0.5;entryDx=0;entryDy=0;" edge="1" parent="1" source="RtyP9Lv2QQKDSvv3CPA3-1" target="RtyP9Lv2QQKDSvv3CPA3-2">
          <mxGeometry relative="1" as="geometry" />
        </mxCell>
        <mxCell id="RtyP9Lv2QQKDSvv3CPA3-1" value="Backlogs Refinement" style="shape=process;whiteSpace=wrap;html=1;backgroundOutline=1;fillColor=#FFCC99;" vertex="1" parent="1">
          <mxGeometry x="400" y="77.5" width="120" height="45" as="geometry" />
        </mxCell>
        <mxCell id="RtyP9Lv2QQKDSvv3CPA3-5" style="edgeStyle=orthogonalEdgeStyle;rounded=0;orthogonalLoop=1;jettySize=auto;html=1;entryX=0.5;entryY=0;entryDx=0;entryDy=0;" edge="1" parent="1" source="RtyP9Lv2QQKDSvv3CPA3-2" target="RtyP9Lv2QQKDSvv3CPA3-1">
          <mxGeometry relative="1" as="geometry">
            <Array as="points">
              <mxPoint x="280" y="20" />
              <mxPoint x="460" y="20" />
            </Array>
          </mxGeometry>
        </mxCell>
        <mxCell id="RtyP9Lv2QQKDSvv3CPA3-2" value="" style="rounded=1;whiteSpace=wrap;html=1;arcSize=22;fillColor=#FFF2CC;" vertex="1" parent="1">
          <mxGeometry x="200" y="40" width="160" height="120" as="geometry" />
        </mxCell>
        <mxCell id="RtyP9Lv2QQKDSvv3CPA3-3" value="Product Backlog" style="text;html=1;strokeColor=none;fillColor=none;align=center;verticalAlign=middle;whiteSpace=wrap;rounded=0;" vertex="1" parent="1">
          <mxGeometry x="200" y="40" width="160" height="30" as="geometry" />
        </mxCell>
        <mxCell id="RtyP9Lv2QQKDSvv3CPA3-6" value="1" style="rounded=0;whiteSpace=wrap;html=1;fillColor=#FF8000;" vertex="1" parent="1">
          <mxGeometry x="220" y="80" width="30" height="30" as="geometry" />
        </mxCell>
        <mxCell id="RtyP9Lv2QQKDSvv3CPA3-7" value="4" style="rounded=0;whiteSpace=wrap;html=1;fillColor=#FF8000;" vertex="1" parent="1">
          <mxGeometry x="220" y="120" width="30" height="30" as="geometry" />
        </mxCell>
        <mxCell id="RtyP9Lv2QQKDSvv3CPA3-8" value="2" style="rounded=0;whiteSpace=wrap;html=1;fillColor=#FF8000;" vertex="1" parent="1">
          <mxGeometry x="265" y="80" width="30" height="30" as="geometry" />
        </mxCell>
        <mxCell id="RtyP9Lv2QQKDSvv3CPA3-9" value="3" style="rounded=0;whiteSpace=wrap;html=1;fillColor=#FF8000;" vertex="1" parent="1">
          <mxGeometry x="310" y="80" width="30" height="30" as="geometry" />
        </mxCell>
        <mxCell id="RtyP9Lv2QQKDSvv3CPA3-10" value="5" style="rounded=0;whiteSpace=wrap;html=1;fillColor=#FF8000;" vertex="1" parent="1">
          <mxGeometry x="265" y="120" width="30" height="30" as="geometry" />
        </mxCell>
        <mxCell id="RtyP9Lv2QQKDSvv3CPA3-11" value="6" style="rounded=0;whiteSpace=wrap;html=1;fillColor=#FF8000;" vertex="1" parent="1">
          <mxGeometry x="310" y="120" width="30" height="30" as="geometry" />
        </mxCell>
        <mxCell id="RtyP9Lv2QQKDSvv3CPA3-12" value="" style="rounded=0;whiteSpace=wrap;html=1;fillColor=#E6E6E6;" vertex="1" parent="1">
          <mxGeometry x="40" y="200" width="480" height="520" as="geometry" />
        </mxCell>
        <mxCell id="RtyP9Lv2QQKDSvv3CPA3-24" style="edgeStyle=orthogonalEdgeStyle;rounded=0;orthogonalLoop=1;jettySize=auto;html=1;entryX=0.5;entryY=0;entryDx=0;entryDy=0;" edge="1" parent="1" source="RtyP9Lv2QQKDSvv3CPA3-14" target="RtyP9Lv2QQKDSvv3CPA3-18">
          <mxGeometry relative="1" as="geometry" />
        </mxCell>
        <mxCell id="RtyP9Lv2QQKDSvv3CPA3-14" value="Sprint Planning" style="shape=process;whiteSpace=wrap;html=1;backgroundOutline=1;fillColor=#99CCFF;" vertex="1" parent="1">
          <mxGeometry x="210" y="220" width="140" height="50" as="geometry" />
        </mxCell>
        <mxCell id="RtyP9Lv2QQKDSvv3CPA3-15" style="edgeStyle=orthogonalEdgeStyle;rounded=0;orthogonalLoop=1;jettySize=auto;html=1;entryX=0.5;entryY=0;entryDx=0;entryDy=0;" edge="1" parent="1" source="RtyP9Lv2QQKDSvv3CPA3-2" target="RtyP9Lv2QQKDSvv3CPA3-14">
          <mxGeometry relative="1" as="geometry" />
        </mxCell>
        <mxCell id="RtyP9Lv2QQKDSvv3CPA3-23" style="edgeStyle=orthogonalEdgeStyle;rounded=0;orthogonalLoop=1;jettySize=auto;html=1;entryX=0.5;entryY=0;entryDx=0;entryDy=0;" edge="1" parent="1" source="RtyP9Lv2QQKDSvv3CPA3-16" target="RtyP9Lv2QQKDSvv3CPA3-17">
          <mxGeometry relative="1" as="geometry" />
        </mxCell>
        <mxCell id="RtyP9Lv2QQKDSvv3CPA3-16" value="" style="rounded=1;whiteSpace=wrap;html=1;fillColor=#99CCFF;" vertex="1" parent="1">
          <mxGeometry x="210" y="300" width="140" height="80" as="geometry" />
        </mxCell>
        <mxCell id="RtyP9Lv2QQKDSvv3CPA3-27" style="edgeStyle=orthogonalEdgeStyle;rounded=0;orthogonalLoop=1;jettySize=auto;html=1;" edge="1" parent="1" source="RtyP9Lv2QQKDSvv3CPA3-17" target="RtyP9Lv2QQKDSvv3CPA3-26">
          <mxGeometry relative="1" as="geometry" />
        </mxCell>
        <mxCell id="RtyP9Lv2QQKDSvv3CPA3-17" value="" style="ellipse;whiteSpace=wrap;html=1;aspect=fixed;fillColor=#D5E8D4;" vertex="1" parent="1">
          <mxGeometry x="225" y="410" width="110" height="110" as="geometry" />
        </mxCell>
        <mxCell id="RtyP9Lv2QQKDSvv3CPA3-18" value="Sprint Backlog" style="text;html=1;strokeColor=none;fillColor=none;align=center;verticalAlign=middle;whiteSpace=wrap;rounded=0;" vertex="1" parent="1">
          <mxGeometry x="210" y="300" width="140" height="30" as="geometry" />
        </mxCell>
        <mxCell id="RtyP9Lv2QQKDSvv3CPA3-19" value="1" style="rounded=0;whiteSpace=wrap;html=1;fillColor=#007FFF;" vertex="1" parent="1">
          <mxGeometry x="220" y="340" width="30" height="30" as="geometry" />
        </mxCell>
        <mxCell id="RtyP9Lv2QQKDSvv3CPA3-20" value="2" style="rounded=0;whiteSpace=wrap;html=1;fillColor=#007FFF;" vertex="1" parent="1">
          <mxGeometry x="265" y="340" width="30" height="30" as="geometry" />
        </mxCell>
        <mxCell id="RtyP9Lv2QQKDSvv3CPA3-21" value="3" style="rounded=0;whiteSpace=wrap;html=1;fillColor=#007FFF;" vertex="1" parent="1">
          <mxGeometry x="310" y="340" width="30" height="30" as="geometry" />
        </mxCell>
        <mxCell id="RtyP9Lv2QQKDSvv3CPA3-25" value="Daily&lt;br&gt;Scrum" style="shape=process;whiteSpace=wrap;html=1;backgroundOutline=1;fillColor=#99CCFF;" vertex="1" parent="1">
          <mxGeometry x="240" y="440" width="80" height="50" as="geometry" />
        </mxCell>
        <mxCell id="RtyP9Lv2QQKDSvv3CPA3-31" style="edgeStyle=orthogonalEdgeStyle;rounded=0;orthogonalLoop=1;jettySize=auto;html=1;entryX=0.5;entryY=1;entryDx=0;entryDy=0;" edge="1" parent="1" source="RtyP9Lv2QQKDSvv3CPA3-26" target="RtyP9Lv2QQKDSvv3CPA3-1">
          <mxGeometry relative="1" as="geometry" />
        </mxCell>
        <mxCell id="RtyP9Lv2QQKDSvv3CPA3-33" style="edgeStyle=orthogonalEdgeStyle;rounded=0;orthogonalLoop=1;jettySize=auto;html=1;entryX=0.5;entryY=0;entryDx=0;entryDy=0;exitX=0;exitY=0.5;exitDx=0;exitDy=0;" edge="1" parent="1" source="RtyP9Lv2QQKDSvv3CPA3-26" target="RtyP9Lv2QQKDSvv3CPA3-32">
          <mxGeometry relative="1" as="geometry">
            <Array as="points">
              <mxPoint x="180" y="565" />
            </Array>
          </mxGeometry>
        </mxCell>
        <mxCell id="RtyP9Lv2QQKDSvv3CPA3-43" style="edgeStyle=orthogonalEdgeStyle;rounded=0;orthogonalLoop=1;jettySize=auto;html=1;entryX=0.5;entryY=0;entryDx=0;entryDy=0;" edge="1" parent="1" source="RtyP9Lv2QQKDSvv3CPA3-26" target="RtyP9Lv2QQKDSvv3CPA3-36">
          <mxGeometry relative="1" as="geometry" />
        </mxCell>
        <mxCell id="RtyP9Lv2QQKDSvv3CPA3-26" value="Sprint Review" style="shape=process;whiteSpace=wrap;html=1;backgroundOutline=1;fillColor=#99CCFF;" vertex="1" parent="1">
          <mxGeometry x="210" y="540" width="140" height="50" as="geometry" />
        </mxCell>
        <mxCell id="RtyP9Lv2QQKDSvv3CPA3-29" value="&lt;font style=&quot;font-size: 24px;&quot;&gt;&lt;b&gt;Sprint&lt;/b&gt;&lt;/font&gt;" style="text;html=1;strokeColor=none;fillColor=none;align=center;verticalAlign=middle;whiteSpace=wrap;rounded=0;" vertex="1" parent="1">
          <mxGeometry x="140" y="450" width="60" height="30" as="geometry" />
        </mxCell>
        <mxCell id="RtyP9Lv2QQKDSvv3CPA3-34" style="edgeStyle=orthogonalEdgeStyle;rounded=0;orthogonalLoop=1;jettySize=auto;html=1;entryX=0;entryY=0.5;entryDx=0;entryDy=0;" edge="1" parent="1" source="RtyP9Lv2QQKDSvv3CPA3-32" target="RtyP9Lv2QQKDSvv3CPA3-14">
          <mxGeometry relative="1" as="geometry">
            <Array as="points">
              <mxPoint x="80" y="645" />
              <mxPoint x="80" y="245" />
            </Array>
          </mxGeometry>
        </mxCell>
        <mxCell id="RtyP9Lv2QQKDSvv3CPA3-32" value="Sprint &lt;br&gt;Retrospective" style="shape=process;whiteSpace=wrap;html=1;backgroundOutline=1;fillColor=#99CCFF;" vertex="1" parent="1">
          <mxGeometry x="110" y="620" width="140" height="50" as="geometry" />
        </mxCell>
        <mxCell id="RtyP9Lv2QQKDSvv3CPA3-35" value="" style="rounded=1;whiteSpace=wrap;html=1;arcSize=22;fillColor=#CCFFCC;" vertex="1" parent="1">
          <mxGeometry x="200" y="760" width="160" height="120" as="geometry" />
        </mxCell>
        <mxCell id="RtyP9Lv2QQKDSvv3CPA3-36" value="Product Release" style="text;html=1;strokeColor=none;fillColor=none;align=center;verticalAlign=middle;whiteSpace=wrap;rounded=0;" vertex="1" parent="1">
          <mxGeometry x="200" y="760" width="160" height="30" as="geometry" />
        </mxCell>
        <mxCell id="RtyP9Lv2QQKDSvv3CPA3-37" value="1" style="rounded=0;whiteSpace=wrap;html=1;fillColor=#FF6666;" vertex="1" parent="1">
          <mxGeometry x="220" y="800" width="30" height="30" as="geometry" />
        </mxCell>
        <mxCell id="RtyP9Lv2QQKDSvv3CPA3-38" value="4" style="rounded=0;whiteSpace=wrap;html=1;fillColor=#FF6666;" vertex="1" parent="1">
          <mxGeometry x="220" y="840" width="30" height="30" as="geometry" />
        </mxCell>
        <mxCell id="RtyP9Lv2QQKDSvv3CPA3-39" value="2" style="rounded=0;whiteSpace=wrap;html=1;fillColor=#FF6666;" vertex="1" parent="1">
          <mxGeometry x="265" y="800" width="30" height="30" as="geometry" />
        </mxCell>
        <mxCell id="RtyP9Lv2QQKDSvv3CPA3-40" value="3" style="rounded=0;whiteSpace=wrap;html=1;fillColor=#FF6666;" vertex="1" parent="1">
          <mxGeometry x="310" y="800" width="30" height="30" as="geometry" />
        </mxCell>
        <mxCell id="RtyP9Lv2QQKDSvv3CPA3-41" value="5" style="rounded=0;whiteSpace=wrap;html=1;fillColor=#FF6666;" vertex="1" parent="1">
          <mxGeometry x="265" y="840" width="30" height="30" as="geometry" />
        </mxCell>
        <mxCell id="RtyP9Lv2QQKDSvv3CPA3-42" value="6" style="rounded=0;whiteSpace=wrap;html=1;fillColor=#FF6666;" vertex="1" parent="1">
          <mxGeometry x="310" y="840" width="30" height="30" as="geometry" />
        </mxCell>
        <mxCell id="RtyP9Lv2QQKDSvv3CPA3-44" value="" style="rounded=0;whiteSpace=wrap;html=1;fillColor=#E6E6E6;" vertex="1" parent="1">
          <mxGeometry x="620" y="180" width="280" height="440" as="geometry" />
        </mxCell>
        <mxCell id="RtyP9Lv2QQKDSvv3CPA3-62" style="edgeStyle=orthogonalEdgeStyle;rounded=0;orthogonalLoop=1;jettySize=auto;html=1;entryX=0.5;entryY=0;entryDx=0;entryDy=0;exitX=0.5;exitY=1;exitDx=0;exitDy=0;" edge="1" parent="1" source="RtyP9Lv2QQKDSvv3CPA3-45" target="RtyP9Lv2QQKDSvv3CPA3-56">
          <mxGeometry relative="1" as="geometry" />
        </mxCell>
        <mxCell id="RtyP9Lv2QQKDSvv3CPA3-45" value="" style="rounded=1;whiteSpace=wrap;html=1;arcSize=22;fillColor=#FFF2CC;" vertex="1" parent="1">
          <mxGeometry x="680" y="40" width="160" height="120" as="geometry" />
        </mxCell>
        <mxCell id="RtyP9Lv2QQKDSvv3CPA3-46" value="Product Backlog" style="text;html=1;strokeColor=none;fillColor=none;align=center;verticalAlign=middle;whiteSpace=wrap;rounded=0;" vertex="1" parent="1">
          <mxGeometry x="680" y="40" width="160" height="30" as="geometry" />
        </mxCell>
        <mxCell id="RtyP9Lv2QQKDSvv3CPA3-47" value="1" style="rounded=0;whiteSpace=wrap;html=1;fillColor=#FF8000;" vertex="1" parent="1">
          <mxGeometry x="700" y="80" width="30" height="30" as="geometry" />
        </mxCell>
        <mxCell id="RtyP9Lv2QQKDSvv3CPA3-48" value="4" style="rounded=0;whiteSpace=wrap;html=1;fillColor=#FF8000;" vertex="1" parent="1">
          <mxGeometry x="700" y="120" width="30" height="30" as="geometry" />
        </mxCell>
        <mxCell id="RtyP9Lv2QQKDSvv3CPA3-49" value="2" style="rounded=0;whiteSpace=wrap;html=1;fillColor=#FF8000;" vertex="1" parent="1">
          <mxGeometry x="745" y="80" width="30" height="30" as="geometry" />
        </mxCell>
        <mxCell id="RtyP9Lv2QQKDSvv3CPA3-50" value="3" style="rounded=0;whiteSpace=wrap;html=1;fillColor=#FF8000;" vertex="1" parent="1">
          <mxGeometry x="790" y="80" width="30" height="30" as="geometry" />
        </mxCell>
        <mxCell id="RtyP9Lv2QQKDSvv3CPA3-51" value="5" style="rounded=0;whiteSpace=wrap;html=1;fillColor=#FF8000;" vertex="1" parent="1">
          <mxGeometry x="745" y="120" width="30" height="30" as="geometry" />
        </mxCell>
        <mxCell id="RtyP9Lv2QQKDSvv3CPA3-52" value="6" style="rounded=0;whiteSpace=wrap;html=1;fillColor=#FF8000;" vertex="1" parent="1">
          <mxGeometry x="790" y="120" width="30" height="30" as="geometry" />
        </mxCell>
        <mxCell id="RtyP9Lv2QQKDSvv3CPA3-54" value="&lt;font style=&quot;font-size: 18px;&quot;&gt;&lt;b&gt;Work Item Life Cycle&lt;/b&gt;&lt;/font&gt;" style="text;html=1;strokeColor=none;fillColor=none;align=center;verticalAlign=middle;whiteSpace=wrap;rounded=0;rotation=-90;" vertex="1" parent="1">
          <mxGeometry x="553.5" y="385" width="190" height="30" as="geometry" />
        </mxCell>
        <mxCell id="RtyP9Lv2QQKDSvv3CPA3-74" style="edgeStyle=orthogonalEdgeStyle;rounded=0;orthogonalLoop=1;jettySize=auto;html=1;entryX=0.5;entryY=0;entryDx=0;entryDy=0;" edge="1" parent="1" source="RtyP9Lv2QQKDSvv3CPA3-56" target="RtyP9Lv2QQKDSvv3CPA3-58">
          <mxGeometry relative="1" as="geometry" />
        </mxCell>
        <mxCell id="RtyP9Lv2QQKDSvv3CPA3-56" value="Prioritization" style="shape=process;whiteSpace=wrap;html=1;backgroundOutline=1;fillColor=#99CCFF;" vertex="1" parent="1">
          <mxGeometry x="680" y="200" width="160" height="40" as="geometry" />
        </mxCell>
        <mxCell id="RtyP9Lv2QQKDSvv3CPA3-75" style="edgeStyle=orthogonalEdgeStyle;rounded=0;orthogonalLoop=1;jettySize=auto;html=1;entryX=0.5;entryY=0;entryDx=0;entryDy=0;" edge="1" parent="1" source="RtyP9Lv2QQKDSvv3CPA3-57" target="RtyP9Lv2QQKDSvv3CPA3-64">
          <mxGeometry relative="1" as="geometry" />
        </mxCell>
        <mxCell id="RtyP9Lv2QQKDSvv3CPA3-57" value="" style="rounded=1;whiteSpace=wrap;html=1;fillColor=#99CCFF;" vertex="1" parent="1">
          <mxGeometry x="680" y="280" width="160" height="80" as="geometry" />
        </mxCell>
        <mxCell id="RtyP9Lv2QQKDSvv3CPA3-58" value="To Do - Items" style="text;html=1;strokeColor=none;fillColor=none;align=center;verticalAlign=middle;whiteSpace=wrap;rounded=0;" vertex="1" parent="1">
          <mxGeometry x="680" y="280" width="160" height="30" as="geometry" />
        </mxCell>
        <mxCell id="RtyP9Lv2QQKDSvv3CPA3-59" value="1" style="rounded=0;whiteSpace=wrap;html=1;fillColor=#007FFF;" vertex="1" parent="1">
          <mxGeometry x="698.5" y="320" width="30" height="30" as="geometry" />
        </mxCell>
        <mxCell id="RtyP9Lv2QQKDSvv3CPA3-60" value="2" style="rounded=0;whiteSpace=wrap;html=1;fillColor=#007FFF;" vertex="1" parent="1">
          <mxGeometry x="743.5" y="320" width="30" height="30" as="geometry" />
        </mxCell>
        <mxCell id="RtyP9Lv2QQKDSvv3CPA3-61" value="3" style="rounded=0;whiteSpace=wrap;html=1;fillColor=#007FFF;" vertex="1" parent="1">
          <mxGeometry x="788.5" y="320" width="30" height="30" as="geometry" />
        </mxCell>
        <mxCell id="RtyP9Lv2QQKDSvv3CPA3-88" style="edgeStyle=orthogonalEdgeStyle;rounded=0;orthogonalLoop=1;jettySize=auto;html=1;entryX=0.5;entryY=0;entryDx=0;entryDy=0;" edge="1" parent="1" source="RtyP9Lv2QQKDSvv3CPA3-63" target="RtyP9Lv2QQKDSvv3CPA3-77">
          <mxGeometry relative="1" as="geometry" />
        </mxCell>
        <mxCell id="RtyP9Lv2QQKDSvv3CPA3-63" value="" style="rounded=1;whiteSpace=wrap;html=1;fillColor=#99CCFF;" vertex="1" parent="1">
          <mxGeometry x="680" y="400" width="160" height="80" as="geometry" />
        </mxCell>
        <mxCell id="RtyP9Lv2QQKDSvv3CPA3-64" value="In-Process Item" style="text;html=1;strokeColor=none;fillColor=none;align=center;verticalAlign=middle;whiteSpace=wrap;rounded=0;" vertex="1" parent="1">
          <mxGeometry x="680" y="400" width="160" height="30" as="geometry" />
        </mxCell>
        <mxCell id="RtyP9Lv2QQKDSvv3CPA3-65" value="1" style="rounded=0;whiteSpace=wrap;html=1;fillColor=#007FFF;" vertex="1" parent="1">
          <mxGeometry x="743.5" y="440" width="30" height="30" as="geometry" />
        </mxCell>
        <mxCell id="RtyP9Lv2QQKDSvv3CPA3-89" style="edgeStyle=orthogonalEdgeStyle;rounded=0;orthogonalLoop=1;jettySize=auto;html=1;entryX=0.5;entryY=0;entryDx=0;entryDy=0;" edge="1" parent="1" source="RtyP9Lv2QQKDSvv3CPA3-76" target="RtyP9Lv2QQKDSvv3CPA3-81">
          <mxGeometry relative="1" as="geometry" />
        </mxCell>
        <mxCell id="RtyP9Lv2QQKDSvv3CPA3-76" value="" style="rounded=1;whiteSpace=wrap;html=1;fillColor=#99CCFF;" vertex="1" parent="1">
          <mxGeometry x="680" y="520" width="160" height="80" as="geometry" />
        </mxCell>
        <mxCell id="RtyP9Lv2QQKDSvv3CPA3-77" value="In-Process Item" style="text;html=1;strokeColor=none;fillColor=none;align=center;verticalAlign=middle;whiteSpace=wrap;rounded=0;" vertex="1" parent="1">
          <mxGeometry x="680" y="520" width="160" height="30" as="geometry" />
        </mxCell>
        <mxCell id="RtyP9Lv2QQKDSvv3CPA3-78" value="1" style="rounded=0;whiteSpace=wrap;html=1;fillColor=#007FFF;" vertex="1" parent="1">
          <mxGeometry x="743.5" y="560" width="30" height="30" as="geometry" />
        </mxCell>
        <mxCell id="RtyP9Lv2QQKDSvv3CPA3-80" value="" style="rounded=1;whiteSpace=wrap;html=1;arcSize=22;fillColor=#CCFFCC;" vertex="1" parent="1">
          <mxGeometry x="680" y="640" width="160" height="120" as="geometry" />
        </mxCell>
        <mxCell id="RtyP9Lv2QQKDSvv3CPA3-81" value="Product Release" style="text;html=1;strokeColor=none;fillColor=none;align=center;verticalAlign=middle;whiteSpace=wrap;rounded=0;" vertex="1" parent="1">
          <mxGeometry x="680" y="640" width="160" height="30" as="geometry" />
        </mxCell>
        <mxCell id="RtyP9Lv2QQKDSvv3CPA3-82" value="1" style="rounded=0;whiteSpace=wrap;html=1;fillColor=#FF6666;" vertex="1" parent="1">
          <mxGeometry x="700" y="680" width="30" height="30" as="geometry" />
        </mxCell>
        <mxCell id="RtyP9Lv2QQKDSvv3CPA3-83" value="4" style="rounded=0;whiteSpace=wrap;html=1;fillColor=#FF6666;" vertex="1" parent="1">
          <mxGeometry x="700" y="720" width="30" height="30" as="geometry" />
        </mxCell>
        <mxCell id="RtyP9Lv2QQKDSvv3CPA3-84" value="2" style="rounded=0;whiteSpace=wrap;html=1;fillColor=#FF6666;" vertex="1" parent="1">
          <mxGeometry x="745" y="680" width="30" height="30" as="geometry" />
        </mxCell>
        <mxCell id="RtyP9Lv2QQKDSvv3CPA3-85" value="3" style="rounded=0;whiteSpace=wrap;html=1;fillColor=#FF6666;" vertex="1" parent="1">
          <mxGeometry x="790" y="680" width="30" height="30" as="geometry" />
        </mxCell>
        <mxCell id="RtyP9Lv2QQKDSvv3CPA3-86" value="5" style="rounded=0;whiteSpace=wrap;html=1;fillColor=#FF6666;" vertex="1" parent="1">
          <mxGeometry x="745" y="720" width="30" height="30" as="geometry" />
        </mxCell>
        <mxCell id="RtyP9Lv2QQKDSvv3CPA3-87" value="6" style="rounded=0;whiteSpace=wrap;html=1;fillColor=#FF6666;" vertex="1" parent="1">
          <mxGeometry x="790" y="720" width="30" height="30" as="geometry" />
        </mxCell>
      </root>
    </mxGraphModel>
  </diagram>
</mxfile>
